<?xml version="1.0" encoding="UTF-8"?>
<svg fill="none" viewBox="0 0 181 26" xmlns="http://www.w3.org/2000/svg">
<g clip-path="url(#a)" fill="#000">
<path d="m39.806 21.696c-3.5762 0.0218-6.8124-2.1161-8.1958-5.414-1.3835-3.2978-0.6415-7.1043 1.8799-9.6408 2.521-2.5365 6.3232-3.3017 9.6292-1.9382 3.3061 1.3636 5.4634 4.5867 5.4634 8.1629 0.0083 4.8592-3.9175 8.8087-8.7767 8.8301zm0-20.967c-4.9087-0.0257-9.3485 2.9118-11.244 7.4394-1.8965 4.528-0.8748 9.7524 2.5869 13.232 3.4622 3.4802 8.6812 4.529 13.219 2.6563 4.5377-1.8726 7.498-6.2969 7.498-11.206 0-6.6708-5.3892-12.088-12.06-12.123z"/>
<path d="m84.586 1.4273c-0.1118 9.7e-4 -0.2148 0.05965-0.2718 0.15517l-12.428 16.899-12.428-16.899c-0.0582-0.09698-0.1636-0.15614-0.2766-0.15517-0.1804 0-0.3273 0.1445-0.3298 0.32489v22.514h3.2876v-13.296l9.5529 12.898c0.0477 0.0577 0.1188 0.0911 0.1935 0.0911 0.0753 0 0.1459-0.0334 0.1942-0.0911l9.5523-12.898v13.296h3.2877v-22.514c-0.0012-0.08728-0.0371-0.17069-0.0994-0.23178-0.0636-0.0611-0.1477-0.09456-0.2347-0.09311z"/>
<path d="m105.02 12.774h-7.6612v-8.0494h7.6612c2.22 0 4.02 1.8 4.02 4.0198 0 2.2198-1.8 4.0198-4.02 4.0198v0.0097zm0-11.356h-10.959v22.839h3.2877v-8.1755h7.6622c4.046 0 7.326-3.2804 7.326-7.3268 0-4.0465-3.28-7.3269-7.326-7.3269"/>
<path d="m12.661 21.696c-4.143 0.0233-7.7454-2.8372-8.6614-6.8773-0.91598-4.0407 1.1002-8.175 4.8485-9.9405 3.7478-1.766 8.2195-0.68808 10.752 2.5908l2.3615-2.3324c-3.2591-3.9374-8.6376-5.4081-13.446-3.676-4.8092 1.7321-8.0149 6.294-8.0149 11.405 0 5.1113 3.2057 9.6733 8.0149 11.405 4.8088 1.7321 10.187 0.2614 13.446-3.676l-2.3615-2.3324c-1.6511 2.1637-4.2172 3.4331-6.9389 3.4331z"/>
<path d="m151.31 10.762-2.516-0.5722c-2.706-0.58186-2.909-2.4245-2.909-3.0015 0-1.8669 1.488-2.9385 4.083-2.9385 2.667 0 4.615 1.8087 5.212 2.4245l2.313-2.2742c-2.173-2.279-4.631-3.3943-7.525-3.3943-4.408 0-7.371 2.4778-7.371 6.1679 0 1.1735 0 4.7424 5.925 6.2019l2.754 0.6498c2.556 0.7031 3.797 1.9396 3.797 3.7725 0 2.1482-2.07 3.6465-5.028 3.6465-3.166 0-5.116-2.1772-5.697-2.9094l-2.285 2.2499c1.557 1.7747 4.215 3.8792 8.016 3.8792 4.737 0 8.311-2.9579 8.311-6.8759 0-3.5107-2.424-5.9448-7.055-7.0359"/>
<path d="m173.44 10.762-2.517-0.5722c-2.705-0.58186-2.91-2.4245-2.91-3.0015 0-1.8669 1.489-2.9385 4.083-2.9385 2.667 0 4.617 1.8087 5.209 2.4245l2.317-2.2742c-2.172-2.279-4.636-3.3943-7.526-3.3943-4.407 0-7.37 2.4778-7.37 6.1679 0 1.1735 0 4.7424 5.926 6.2019l2.769 0.6352c2.55 0.7031 3.791 1.9397 3.791 3.7726 0 2.1481-2.066 3.6464-5.023 3.6464-3.167 0-5.121-2.1772-5.698-2.9094l-2.318 2.2742c1.557 1.7748 4.214 3.8792 8.016 3.8792 4.737 0 8.311-2.9579 8.311-6.8759 0-3.5107-2.425-5.9448-7.055-7.0359"/>
<path d="m121.93 15.106 3.763-7.1766 3.767 7.1766h-7.53zm3.763-13.883c-0.13 9.7e-4 -0.247 0.07662-0.301 0.19397l-11.982 22.849h3.719l3.065-5.8528h10.992l3.07 5.8528h3.714l-11.977-22.849c-0.055-0.11638-0.171-0.19154-0.3-0.19397z"/>
<path d="m34.622 15.722 2.3227 2.3372 8.0397-8.0833-2.3276-2.3372-8.0348 8.0833z"/>
</g>
<defs>
<clipPath id="a">
<rect transform="translate(.5 .72852)" width="180" height="24.706" fill="#fff"/>
</clipPath>
</defs>
</svg>
