<?xml version="1.0" encoding="UTF-8"?>
<svg fill="none" viewBox="0 0 101 42" xmlns="http://www.w3.org/2000/svg">
<g clip-path="url(#a)" clip-rule="evenodd" fill-rule="evenodd">
<path d="m13.405 9.7446c-6.9823 0-12.801 2.9815-12.801 11.977 0 7.1262 3.9126 11.614 12.981 11.614 10.675 0 11.359-7.0772 11.359-7.0772h-5.1724s-1.1088 3.8108-6.502 3.8108c-4.3925 0-7.5515-2.9864-7.5515-7.1725h19.767v-2.6266c0-4.1414-2.6121-10.525-12.08-10.525h-3e-4zm-0.1802 3.3571c4.1815 0 7.0319 2.5784 7.0319 6.4424h-14.424c0-4.1021 3.7206-6.4424 7.3921-6.4424z" fill="#FE252E"/>
<path d="m25.484 1.0347v27.784c0 1.5771-0.1118 3.7916-0.1118 3.7916h4.9333s0.1769-1.5902 0.1769-3.044c0 0 2.4374 3.8382 9.0648 3.8382 6.9791 0 11.72-4.8767 11.72-11.863 0-6.4997-4.3544-11.727-11.708-11.727-6.8863 0-9.0262 3.7429-9.0262 3.7429v-12.521h-5.0484v-2.5e-4zm12.801 12.215c4.7393 0 7.7528 3.5402 7.7528 8.2908 0 5.0942-3.4806 8.4266-7.7187 8.4266-5.0583 0-7.7867-3.9748-7.7867-8.3816 0-4.1058 2.4483-8.336 7.7528-8.336l-2e-4 2e-4z" fill="#0061D6"/>
<path d="m63.525 9.7451c-10.505 0-11.178 5.7893-11.178 6.7145h5.2286s0.274-3.38 5.5892-3.38c3.4538 0 6.13 1.5912 6.13 4.6501v1.0888h-6.13c-8.1382 0-12.44 2.3959-12.44 7.2586 0 4.7852 3.9749 7.3893 9.3473 7.3893 7.3212 0 9.6796-4.0717 9.6796-4.0717 0 1.619 0.1243 3.215 0.1243 3.215h4.648s-0.1803-1.9781-0.1803-3.2437v-10.939c0-7.1726-5.748-8.6822-10.818-8.6822l-3e-4 4.9e-4zm5.7694 12.34v1.4517c0 1.8933-1.1607 6.6009-7.9951 6.6009-3.7424 0-5.3469-1.8797-5.3469-4.0604 0-3.9666 5.4036-3.9922 13.342-3.9922z" fill="#FEB101"/>
<path d="m71.526 10.654h5.882l8.4417 17.022 8.4228-17.022h5.3283l-15.342 30.305h-5.5892l4.4269-8.4476-11.571-21.857h3e-4z" fill="#69B900"/>
</g>
<defs>
<clipPath id="a">
<rect transform="translate(.5 .41504)" width="100" height="41.333" fill="#fff"/>
</clipPath>
</defs>
</svg>

