<?xml version="1.0" encoding="UTF-8"?>
<svg fill="none" viewBox="0 0 166 32" xmlns="http://www.w3.org/2000/svg">
<g clip-path="url(#a)" fill="#000">
<path d="m90.63 28.957h21.19v-2.5882h-17.557v-8.2819h13.187v-2.6188h-13.187v-7.6302h17.557v-2.5788h-21.19v23.698z"/>
<path d="m101.64 1.4277-2.8693 3.2229 9.0063-3.2229h-6.137z"/>
<path d="m147.39 26.369v-21.11h-3.312v23.698h21.421v-2.5882h-18.109z"/>
<path d="m125.55 5.2593-12.049 23.698h4.073l3.083-6.1337h14.451l3.109 6.1337h4.031l-12.059-23.698h-4.639zm-3.368 14.594 5.678-11.319 5.745 11.319h-11.423z"/>
<path d="m79.132 19.048c5.4291-1.4488 5.9566-5.4882 5.9291-6.9324-0.3241-4.2335-3.1765-6.8562-8.3018-6.8562h-14.936v23.698h3.4049v-9.9409h9.7238l7.1536 9.9409h4.2915c-2e-4 0-5.1481-6.6904-7.265-9.9093zm-2.8376-2.8317h-11.066v-8.152h11.452c2.6367 0 4.1198 1.2309 4.6541 2.7945 0.3535 1.0718 0.1269 2.4789-0.4578 3.4367-0.9572 1.5838-2.7753 1.9208-4.5819 1.9208z"/>
<path d="m41.364 1.2456c-9.6116 0-16.163 6.7768-16.163 14.979 0 8.6349 7.2366 14.731 16.163 14.731 8.9199 0 16.154-6.0087 16.154-14.731 0-8.2022-6.6321-14.979-16.154-14.979zm-0.1154 26.768c-6.6498 0-12.129-5.3438-12.129-11.781 0-6.4285 5.2203-12.028 12.386-12.028 6.9886 0 12.126 5.5997 12.126 12.028 0 6.437-5.7366 11.781-12.384 11.781z"/>
<path d="m16.623 13.643h2.4568l4.4595-8.3834h-3.5886l-3.3277 8.3834z"/>
<path d="m4.6129 26.369v-21.11h-3.3138v23.698h21.42v-2.5882h-18.106z"/>
</g>
<defs>
<clipPath id="a">
<rect transform="translate(.5 .34131)" width="165" height="31.48" fill="#fff"/>
</clipPath>
</defs>
</svg>
