<?xml version="1.0" encoding="UTF-8"?>
<svg fill="none" viewBox="0 0 62 45" xmlns="http://www.w3.org/2000/svg">
<path d="m0.16101 1.3523h9.3893v25.43c0 4.0245 1.8241 6.4218 3.2666 7.4495-1.5271 1.3699-6.1937 2.5687-9.6723-0.3427-2.0509-1.7161-2.9836-4.538-2.9836-7.1925v-25.345zm58.679 21.125v-2.6725h2.8636v-9.3757h-3.1447c-1.2072-5.629-6.173-9.8471-12.112-9.8471-6.8415 0-12.387 5.5971-12.387 12.501v21.895c1.949 0.2764 4.271-0.0344 6.2467-1.6877 2.0505-1.7164 2.9832-4.538 2.9832-7.1925v-0.8067h4.6894v-9.3758h-4.6894v-2.8326h0.0113c0-1.7533 1.4084-3.1746 3.146-3.1746 1.7373 0 3.1513 1.4213 3.1513 3.1746v9.3941c0 6.904 5.5517 12.501 12.393 12.501v-9.3266c-1.7373 0-3.1513-1.4214-3.1513-3.1746zm-35.56-12.048v13.76c0 0.7812-0.6422 1.4145-1.4347 1.4145-0.7924 0-1.4346-0.6333-1.4346-1.4145v-13.76h-9.2906v16.183c0 2.9111 0.9783 6.5929 5.4303 7.7917 4.4566 1.2001 7.0419-1.2842 7.0419-1.2842-0.2355 1.6366-1.7629 2.8355-4.2233 3.0924-1.8616 0.1941-4.2423-0.4281-5.4299-0.9419v8.5738c3.0261 0.9006 6.2267 1.1915 9.359 0.5781 5.6845-1.113 9.2721-5.9079 9.2721-12.287v-21.706h-9.2902z" clip-rule="evenodd" fill="#FF0590" fill-rule="evenodd"/>
</svg>
