<?xml version="1.0" encoding="UTF-8"?>
<svg fill="#03363d" fill-rule="evenodd" viewBox="0 0 136 28" xmlns="http://www.w3.org/2000/svg">
<path d="M94.272 15.768c-.361-2.352-1.768-4.085-4.583-4.085-2.614 0-4.422 1.485-4.905 4.085h9.487zm-4.141 7.015c2.21 0 3.819-.908 4.783-1.856l2.373 2.557c-1.569 1.61-3.738 2.808-7.115 2.808-5.79 0-9.528-3.839-9.528-9.039 0-5.159 3.94-9.037 9.004-9.037 5.749 0 9.004 4.374 8.723 10.441H84.784c.483 2.518 2.251 4.126 5.347 4.126h0zM.918 22.595l10.458-10.622H1.163V8.639h15.058v3.402L5.763 22.664h10.599v3.332H.918zm31.325-6.827c-.361-2.352-1.768-4.085-4.583-4.085-2.614 0-4.422 1.485-4.905 4.085h9.487zm-4.141 7.015c2.21 0 3.819-.908 4.783-1.856l2.373 2.557c-1.569 1.61-3.738 2.808-7.116 2.808-5.789 0-9.527-3.839-9.527-9.039 0-5.159 3.94-9.037 9.004-9.037 5.749 0 9.004 4.374 8.723 10.441H22.756c.483 2.518 2.251 4.126 5.347 4.126h0zm45.531-5.554c0-3.089-2.335-5.624-5.508-5.624-3.103 0-5.509 2.466-5.509 5.624s2.406 5.659 5.509 5.659c3.173 0 5.508-2.535 5.508-5.659m-14.711.035c0-5.555 4.147-9.026 8.714-9.026 2.302 0 4.497 1.007 5.787 2.605V.599h3.695v25.346h-3.695v-2.396c-1.324 1.702-3.52 2.742-5.822 2.742-4.426 0-8.679-3.504-8.679-9.026m41.855 4.998l3.345-1.735c.942 1.596 2.477 2.534 4.463 2.534 2.092 0 3.173-1.075 3.173-2.291 0-1.389-2.021-1.702-4.218-2.153-2.965-.625-6.03-1.598-6.03-5.171 0-2.745 2.613-5.279 6.728-5.244 3.241 0 5.648 1.285 7.007 3.369l-3.103 1.7c-.802-1.216-2.161-1.98-3.904-1.98-1.987 0-2.998.974-2.998 2.084 0 1.25 1.604 1.596 4.114 2.152 2.857.627 6.1 1.563 6.1 5.175 0 2.395-2.09 5.624-7.042 5.588-3.624 0-6.171-1.457-7.634-4.027m24.709-4.027l-2.927 3.193v4.513h-3.695V.599h3.695v16.596l7.842-8.61h4.497l-6.799 7.429 6.974 9.929h-4.183zM47.756 8.234c-4.393 0-8.071 2.846-8.071 7.568v10.142h3.765v-9.672c0-2.846 1.639-4.551 4.425-4.551s4.186 1.705 4.186 4.551v9.672h3.765V15.802c0-4.722-3.678-7.568-8.07-7.568"/>
</svg>
